<?xml version="1.0" encoding="utf-8"?>
<!-- Generator: Adobe Illustrator 18.1.1, SVG Export Plug-In . SVG Version: 6.00 Build 0)  -->
<svg version="1.1" id="Camada_1" xmlns="http://www.w3.org/2000/svg" xmlns:xlink="http://www.w3.org/1999/xlink" x="0px" y="0px" width="155" height="157"
	 viewBox="0 0 151.6 154" enable-background="new 0 0 151.6 154" xml:space="preserve" >
<g>
	<defs>
		<rect id="SVGID_1_" x="0" y="4.4" width="151.6" height="145.6"/>
	</defs>
	<clipPath id="SVGID_2_">
		<use xlink:href="#SVGID_1_"  overflow="visible"/>
	</clipPath>
	<path clip-path="url(#SVGID_2_)" fill="#FFFFFF" d="M76.9,92.5c3.7,0,6.2-1.8,6.2-5.4c0-4.1-2.7-5.4-6.3-5.4h-6.3v10.7H76.9z
		 M64,76.4h13.6c6.5,0,11.7,3.8,11.7,10.8c0,4.1-2.2,8.3-6.8,10l8.5,13.6h-7L76,97.9h-5.5v12.9H64V76.4z"/>
</g>
<polygon fill="#FFFFFF" points="94.5,76.4 118.4,76.4 118.4,82.1 100.9,82.1 100.9,90.5 116.4,90.5 116.4,96.1 100.9,96.1 
	100.9,105.2 118.6,105.2 118.6,110.8 94.5,110.8 "/>
<g>
	<defs>
		<rect id="SVGID_3_" x="0" y="4.4" width="151.6" height="145.6"/>
	</defs>
	<clipPath id="SVGID_4_">
		<use xlink:href="#SVGID_3_"  overflow="visible"/>
	</clipPath>
	<path clip-path="url(#SVGID_4_)" fill="#FFFFFF" d="M137.9,105.2c3.3,0,7.4-1.7,7.4-6.7v-9.9c0-4.2-3.6-6.5-7.6-6.5h-6.6v23.1
		H137.9z M124.6,76.4h13.4c7.5,0,13.6,4.9,13.6,12.5v9.2c0,8.2-6.7,12.7-13.5,12.7h-13.5V76.4z"/>
	<path clip-path="url(#SVGID_4_)" fill="#FFFFFF" d="M66.6,124.2c1.1,0,1.8-0.5,1.8-1.5c0-1-0.7-1.5-1.8-1.5H65v3H66.6z M64.1,120.4
		h2.6c1.4,0,2.4,0.8,2.4,2.2c0,1-0.6,1.9-1.8,2.2l2.2,3.1h-0.9l-2.1-3H65v3h-0.8V120.4z"/>
</g>
<polygon fill="#FFFFFF" points="70.7,120.4 75.5,120.4 75.5,121.2 71.5,121.2 71.5,123.7 74.9,123.7 74.9,124.4 71.5,124.4 
	71.5,127.1 75.5,127.1 75.5,127.9 70.7,127.9 "/>
<g>
	<defs>
		<rect id="SVGID_5_" x="0" y="4.4" width="151.6" height="145.6"/>
	</defs>
	<clipPath id="SVGID_6_">
		<use xlink:href="#SVGID_5_"  overflow="visible"/>
	</clipPath>
	<path clip-path="url(#SVGID_6_)" fill="#FFFFFF" d="M76.4,125.5v-2.6c0-1.6,1.2-2.6,2.8-2.6c1.5,0,2.7,0.9,2.7,2.2v0.4h-0.8v-0.3
		c0-1-0.8-1.6-1.9-1.6c-1.1,0-2,0.7-2,1.9v2.5c0,1.1,0.8,1.8,2,1.8c1.1,0,1.8-0.6,1.8-1.6v-0.2h0.8v0.3c0,1.4-1.2,2.2-2.6,2.2
		C77.7,128,76.4,127.2,76.4,125.5"/>
	<path clip-path="url(#SVGID_6_)" fill="#FFFFFF" d="M85.7,124.2c1.1,0,1.8-0.5,1.8-1.5c0-1-0.7-1.5-1.8-1.5h-1.6v3H85.7z
		 M83.3,120.4h2.6c1.4,0,2.4,0.8,2.4,2.2c0,1-0.6,1.9-1.8,2.2l2.2,3.1h-0.9l-2.1-3h-1.5v3h-0.8V120.4z"/>
	<path clip-path="url(#SVGID_6_)" fill="#FFFFFF" d="M89.8,125.4v-5h0.8v4.9c0,1.3,0.8,1.9,1.9,1.9c1.2,0,1.9-0.7,1.9-1.9v-4.9h0.8
		v5c0,1.6-1.1,2.6-2.8,2.6C91.1,128,89.8,127.2,89.8,125.4"/>
</g>
<rect x="96.9" y="120.4" fill="#FFFFFF" width="0.8" height="7.5"/>
<polygon fill="#FFFFFF" points="101.3,121.1 98.8,121.1 98.8,120.4 104.5,120.4 104.5,121.1 102.1,121.1 102.1,127.9 101.3,127.9 
	"/>
<rect x="105.6" y="120.4" fill="#FFFFFF" width="0.8" height="7.5"/>
<polygon fill="#FFFFFF" points="108.1,120.4 109,120.4 112.8,126.4 112.8,126.4 112.8,120.4 113.6,120.4 113.6,127.9 112.8,127.9 
	108.9,121.8 108.9,121.8 108.9,127.9 108.1,127.9 "/>
<g>
	<defs>
		<rect id="SVGID_7_" x="0" y="4.4" width="151.6" height="145.6"/>
	</defs>
	<clipPath id="SVGID_8_">
		<use xlink:href="#SVGID_7_"  overflow="visible"/>
	</clipPath>
	<path clip-path="url(#SVGID_8_)" fill="#FFFFFF" d="M115.1,125.5v-2.6c0-1.6,1.2-2.6,2.8-2.6c1.5,0,2.7,0.8,2.7,2.2v0.4h-0.8v-0.3
		c0-1-0.8-1.5-1.9-1.5c-1.1,0-2,0.7-2,1.9v2.5c0,1.1,0.8,1.8,2,1.8c1.1,0,1.9-0.6,1.9-1.6v-0.8h-2.1v-0.8h2.9v1.7
		c0,1.4-1.1,2.2-2.7,2.2C116.4,128,115.1,127.2,115.1,125.5"/>
</g>
<polygon fill="#FFFFFF" points="64.1,131.4 68.9,131.4 68.9,132.2 65,132.2 65,134.6 68.3,134.6 68.3,135.4 65,135.4 65,138.1 
	69,138.1 69,138.9 64.1,138.9 "/>
<polygon fill="#FFFFFF" points="71.8,135 69.7,131.4 70.6,131.4 72.3,134.3 74.1,131.4 75,131.4 72.8,135 75.2,138.9 74.2,138.9 
	72.3,135.7 70.4,138.9 69.5,138.9 "/>
<polygon fill="#FFFFFF" points="76.1,131.4 80.9,131.4 80.9,132.2 76.9,132.2 76.9,134.6 80.3,134.6 80.3,135.4 76.9,135.4 
	76.9,138.1 80.9,138.1 80.9,138.9 76.1,138.9 "/>
<g>
	<defs>
		<rect id="SVGID_9_" x="0" y="4.4" width="151.6" height="145.6"/>
	</defs>
	<clipPath id="SVGID_10_">
		<use xlink:href="#SVGID_9_"  overflow="visible"/>
	</clipPath>
	<path clip-path="url(#SVGID_10_)" fill="#FFFFFF" d="M81.8,136.5v-2.6c0-1.6,1.2-2.6,2.8-2.6c1.5,0,2.7,0.9,2.7,2.2v0.4h-0.8v-0.3
		c0-1-0.8-1.6-1.9-1.6c-1.1,0-2,0.7-2,1.9v2.5c0,1.1,0.8,1.8,2,1.8c1.1,0,1.8-0.6,1.8-1.6v-0.2h0.8v0.3c0,1.4-1.1,2.2-2.6,2.2
		C83.1,139,81.8,138.1,81.8,136.5"/>
	<path clip-path="url(#SVGID_10_)" fill="#FFFFFF" d="M88.6,136.4v-5h0.8v4.9c0,1.3,0.8,1.9,1.9,1.9c1.2,0,1.9-0.7,1.9-1.9v-4.9h0.8
		v5c0,1.6-1.1,2.6-2.8,2.6C89.9,139,88.6,138.2,88.6,136.4"/>
</g>
<polygon fill="#FFFFFF" points="97.6,132.1 95.2,132.1 95.2,131.4 100.9,131.4 100.9,132.1 98.4,132.1 98.4,138.9 97.6,138.9 "/>
<rect x="102" y="131.4" fill="#FFFFFF" width="0.8" height="7.5"/>
<polygon fill="#FFFFFF" points="103.8,131.4 104.6,131.4 106.7,137.7 106.7,137.7 108.8,131.4 109.6,131.4 107.1,138.9 106.3,138.9 
	"/>
<polygon fill="#FFFFFF" points="110.6,131.4 115.4,131.4 115.4,132.2 111.4,132.2 111.4,134.6 114.8,134.6 114.8,135.4 111.4,135.4 
	111.4,138.1 115.4,138.1 115.4,138.9 110.6,138.9 "/>
<g>
	<defs>
		<rect id="SVGID_11_" x="0" y="4.4" width="151.6" height="145.6"/>
	</defs>
	<clipPath id="SVGID_12_">
		<use xlink:href="#SVGID_11_"  overflow="visible"/>
	</clipPath>
	<path clip-path="url(#SVGID_12_)" fill="#FFFFFF" d="M116,137.2l0.8-0.3c0.3,0.8,1,1.3,2.1,1.3c1,0,1.8-0.5,1.8-1.3
		c0-0.8-0.5-1.1-1.2-1.3l-1.4-0.4c-1-0.3-1.7-0.8-1.7-1.9c0-1.2,1-2,2.4-2c1.2,0,2.1,0.4,2.5,1.4l-0.7,0.3c-0.3-0.6-0.9-1-1.8-1
		c-0.8,0-1.5,0.4-1.5,1.2c0,0.6,0.4,1,1.2,1.3l1.4,0.4c0.9,0.2,1.5,0.8,1.5,2c0,1.3-1.1,2.2-2.6,2.2
		C117.5,139,116.4,138.4,116,137.2"/>
	<path clip-path="url(#SVGID_12_)" fill="#FFFFFF" d="M129.4,132.9c0-0.7-0.6-1-1.1-1c-0.8,0-1.3,0.5-1.3,1.1c0,0.5,0.3,0.9,0.6,1.2
		c0.1,0.1,0.2,0.2,0.3,0.3C128.9,134.2,129.4,133.7,129.4,132.9 M129.6,137.5l-2.1-2.3c-1,0.3-1.5,1-1.5,1.7c0,0.9,0.7,1.5,1.7,1.5
		C128.4,138.4,129.2,138,129.6,137.5 M125.2,136.9c0-0.8,0.5-1.8,1.9-2.2c-0.5-0.6-0.9-1.2-0.9-1.7c0-0.8,0.5-1.7,2.2-1.7
		c1.2,0,1.9,0.8,1.9,1.6c0,1-0.8,1.7-1.9,2l1.8,2c0.2-0.4,0.4-0.9,0.6-1.4l0.7,0.1c-0.2,0.7-0.4,1.2-0.7,1.8l1.4,1.5h-1.1l-0.9-0.9
		c-0.6,0.6-1.4,1.1-2.5,1.1C126,139,125.2,138.1,125.2,136.9"/>
	<path clip-path="url(#SVGID_12_)" fill="#FFFFFF" d="M66.9,149.1c1.1,0,1.9-0.7,1.9-1.8v-2.5c0-1-0.7-1.8-1.9-1.8H65v6H66.9z
		 M64.1,142.4h2.8c1.5,0,2.7,0.9,2.7,2.5v2.4c0,1.6-1.2,2.6-2.7,2.6h-2.8V142.4z"/>
</g>
<polygon fill="#FFFFFF" points="71.1,142.4 71.1,149.9 75.9,149.9 75.9,149.1 71.9,149.1 71.9,146.4 75.2,146.4 75.2,145.6 
	71.9,145.6 71.9,143.1 75.9,143.1 75.9,142.4 "/>
<polygon fill="#FFFFFF" points="81.6,142.4 79.5,148.7 79.5,148.7 77.5,142.4 76.6,142.4 79.1,149.9 79.9,149.9 82.5,142.4 "/>
<polygon fill="#FFFFFF" points="83.4,142.4 83.4,149.9 88.2,149.9 88.2,149.1 84.3,149.1 84.3,146.4 87.6,146.4 87.6,145.6 
	84.3,145.6 84.3,143.1 88.2,143.1 88.2,142.4 "/>
<polygon fill="#FFFFFF" points="89.7,142.4 89.7,149.9 94.4,149.9 94.4,149.1 90.5,149.1 90.5,142.4 "/>
<g>
	<defs>
		<rect id="SVGID_13_" x="0" y="4.4" width="151.6" height="145.6"/>
	</defs>
	<clipPath id="SVGID_14_">
		<use xlink:href="#SVGID_13_"  overflow="visible"/>
	</clipPath>
	<path clip-path="url(#SVGID_14_)" fill="#FFFFFF" d="M100,147.4v-2.6c0-1.1-0.8-1.8-2-1.8c-1.1,0-2,0.7-2,1.9v2.5
		c0,1.1,0.8,1.8,2,1.8C99.1,149.2,100,148.6,100,147.4 M95.1,147.5V145c0-1.7,1.3-2.7,2.8-2.7c1.6,0,2.8,1,2.8,2.6v2.5
		c0,1.7-1.3,2.7-2.8,2.7C96.4,150,95.1,149.1,95.1,147.5"/>
	<path clip-path="url(#SVGID_14_)" fill="#FFFFFF" d="M104.7,146.2c1.1,0,1.9-0.5,1.9-1.6c0-1-0.7-1.5-1.7-1.5h-1.7v3.1H104.7z
		 M102.3,142.4h2.7c1.4,0,2.4,0.9,2.4,2.2c0,1.2-0.9,2.3-2.5,2.3h-1.7v3h-0.8V142.4z"/>
</g>
<polygon fill="#FFFFFF" points="114.3,142.4 112,147 112,147 109.7,142.4 108.6,142.4 108.6,149.9 109.5,149.9 109.5,143.9 
	109.5,143.9 111.7,148.1 112.3,148.1 114.5,143.9 114.6,143.9 114.6,149.9 115.4,149.9 115.4,142.4 "/>
<polygon fill="#FFFFFF" points="117,142.4 117,149.9 121.8,149.9 121.8,149.1 117.9,149.1 117.9,146.4 121.2,146.4 121.2,145.6 
	117.9,145.6 117.9,143.1 121.8,143.1 121.8,142.4 "/>
<polygon fill="#FFFFFF" points="128,142.4 128,148.4 127.9,148.4 124.1,142.4 123.2,142.4 123.2,149.9 124,149.9 124,143.8 
	124.1,143.8 127.9,149.9 128.8,149.9 128.8,142.4 "/>
<polygon fill="#FFFFFF" points="129.9,142.4 129.9,143.1 132.3,143.1 132.3,149.9 133.1,149.9 133.1,143.1 135.6,143.1 135.6,142.4 
	"/>
<polygon fill="#D20A11" points="48,4.4 33.4,20.2 48,30.9 59.4,26.6 55,16.9 "/>
<polygon fill="#C00D0D" points="34.2,20.2 29.1,38.4 48,30.9 "/>
<polygon fill="#DB0812" points="48,30.9 30.1,37.7 28.1,58.4 73.5,55 60.3,41.8 "/>
<polygon fill="#C00D0D" points="15.1,10.3 25.4,17.1 34.2,20.2 48,4.4 "/>
<polygon fill="#8A1002" points="30,58.1 37.7,89.2 73.5,55 "/>
<polygon fill="#A51008" points="0,44 18.2,41.1 30.1,37.7 34.2,20.2 15.1,10.3 "/>
<polygon fill="#A51008" points="37.7,89.2 30.2,58.1 0,44 "/>
<polygon fill="#C00D0D" points="0,44 30.2,58.1 30.1,37.7 "/>
<polygon fill="#E73B28" points="48,4.4 59.4,26.6 66.1,25.9 75.5,22.9 "/>
<polygon fill="#C00D0D" points="48,30.9 73.5,55 65.9,38.6 59.4,26.6 "/>
<polygon fill="#D20A11" points="73.5,55 75.5,22.9 59.4,26.6 "/>
</svg>
