<?xml version="1.0" encoding="utf-8"?>
<!-- Generator: Adobe Illustrator 18.1.1, SVG Export Plug-In . SVG Version: 6.00 Build 0)  -->
<svg version="1.1" id="Camada_1" xmlns="http://www.w3.org/2000/svg" xmlns:xlink="http://www.w3.org/1999/xlink" x="0px" y="0px"
	 viewBox="0 0 52.4 40" enable-background="new 0 0 52.4 40" xml:space="preserve">
<g>
	<defs>
		<rect id="SVGID_1_" x="0" y="0" width="52.4" height="40"/>
	</defs>
	<clipPath id="SVGID_2_">
		<use xlink:href="#SVGID_1_"  overflow="visible"/>
	</clipPath>
	
		<polygon clip-path="url(#SVGID_2_)" fill="none" stroke="#FFFFFF" stroke-width="1.85" stroke-linecap="round" stroke-linejoin="round" stroke-miterlimit="10" points="
		19.5,39.4 30.6,4.3 35.5,0.6 23.5,39.4 	"/>
	
		<path clip-path="url(#SVGID_2_)" fill="none" stroke="#FFFFFF" stroke-width="1.85" stroke-linecap="round" stroke-linejoin="round" stroke-miterlimit="10" d="
		M14.6,27l8.5-6.5 M9.9,27l12.3-9.3 M25.3,15.3l2.3-1.8 M5.3,27l16-12.1 M24.4,12.5l4.7-3.6 M0.6,27l19.8-15 M23.5,9.7l7.1-5.3"/>
	
		<path clip-path="url(#SVGID_2_)" fill="none" stroke="#FFFFFF" stroke-width="1.85" stroke-linecap="round" stroke-linejoin="round" stroke-miterlimit="10" d="
		M29,27l-0.8-2.6 M26.2,18.1L21.8,4.3L17,0.6l7.3,23.7 M26.4,31.2l2.5,8.2h4l-2.6-8.2"/>
	
		<path clip-path="url(#SVGID_2_)" fill="none" stroke="#FFFFFF" stroke-width="1.85" stroke-linecap="round" stroke-linejoin="round" stroke-miterlimit="10" d="
		M37.9,27l-8.5-6.5 M42.6,27l-12.3-9.3 M27.2,15.3l-2.4-1.8 M47.2,27L31.1,14.8 M28.1,12.5l-4.7-3.6 M51.8,27L32,12 M29,9.7
		l-7.1-5.4"/>
	
		<path clip-path="url(#SVGID_2_)" fill="none" stroke="#FFFFFF" stroke-width="1.85" stroke-linecap="round" stroke-linejoin="round" stroke-miterlimit="10" d="
		M0.6,27.1h22.7 M27.3,27.1H29h4.2h9.3h9.3 M0.6,31.2h21.4 M26,31.2h25.8"/>
</g>
</svg>
