<?xml version="1.0" encoding="utf-8"?><!DOCTYPE svg PUBLIC "-//W3C//DTD SVG 1.1//EN" "http://www.w3.org/Graphics/SVG/1.1/DTD/svg11.dtd"><svg version="1.1" id="Layer_1" xmlns="http://www.w3.org/2000/svg" xmlns:xlink="http://www.w3.org/1999/xlink" x="0px" y="0px" viewBox="0 0 467.6 226.8" enable-background="new 0 0 467.6 226.8" xml:space="preserve"><path d="M459.1,226.8H8.5c-4.7,0-8.5-3.8-8.5-8.5V8.5C0,3.8,3.8,0,8.5,0h450.6c4.7,0,8.5,3.8,8.5,8.5v209.8C467.6,223,463.8,226.8,459.1,226.8z"/><g><path fill="#FFFFFF" d="M187.1,92.3H156c-1.5,0-2.3,0.7-2.3,2.3v7c0,1.5,0.7,2.3,2.3,2.3h8.2c0.3,0,0.4,0.1,0.4,0.4v27.9
c0,1.5,0.7,2.3,2.3,2.3h9.3c1.5,0,2.3-0.7,2.3-2.3v-27.9c0-0.3,0.1-0.4,0.4-0.4h8.2c1.5,0,2.3-0.7,2.3-2.3v-7C189.4,93.1,188.6,92.3,187.1,92.3z"/><path fill="#FFFFFF" d="M227,92.3h-9.3c-1.5,0-2.3,0.7-2.3,2.3v24.5c0,0.9-0.2,1.4-0.8,2l-0.7,0.7c-0.7,0.7-1.1,0.9-2.1,0.9h-1.1c-1,0-1.5-0.2-2.1-0.9l-0.7-0.7c-0.7-0.7-0.8-1.1-0.8-2V94.6c0-1.5-0.7-2.3-2.3-2.3h-9.3c-1.5,0-2.3,0.7-2.3,2.3v27c0,2.8,0.6,4.3,2.5,6.2l4,4c2,2,3.6,2.7,6.3,2.7h10.6c2.7,0,4.2-0.7,6.3-2.7l4-4c1.9-1.9,2.5-3.4,2.5-6.2v-27C229.3,93.1,228.6,92.3,227,92.3z"/><path fill="#FFFFFF" d="M268.2,92.3h-9.3c-1.5,0-2.3,0.7-2.3,2.3v24.5c0,0.9-0.2,1.4-0.8,2l-0.7,0.7c-0.7,0.7-1.1,0.9-2.1,0.9h-1.1
c-1,0-1.5-0.2-2.1-0.9l-0.7-0.7c-0.7-0.7-0.8-1.1-0.8-2V94.6c0-1.5-0.7-2.3-2.3-2.3h-9.3c-1.5,0-2.3,0.7-2.3,2.3v27
c0,2.8,0.6,4.3,2.5,6.2l4,4c2,2,3.6,2.7,6.3,2.7h10.6c2.7,0,4.2-0.7,6.3-2.7l4-4c1.9-1.9,2.5-3.4,2.5-6.2v-27
C270.4,93.1,269.7,92.3,268.2,92.3z"/><path fill="#FFFFFF" d="M307.6,92.3h-31.1c-1.5,0-2.3,0.7-2.3,2.3v7c0,1.5,0.7,2.3,2.3,2.3h8.2c0.3,0,0.4,0.1,0.4,0.4v27.9c0,1.5,0.7,2.3,2.3,2.3h9.3c1.5,0,2.3-0.7,2.3-2.3v-27.9c0-0.3,0.1-0.4,0.4-0.4h8.2c1.5,0,2.3-0.7,2.3-2.3v-7C309.9,93.1,309.1,92.3,307.6,92.3z"/></g><g></g><g></g><g></g><g></g><g></g><g></g></svg>