<?xml version="1.0" encoding="utf-8"?>
<!-- Generator: Adobe Illustrator 18.1.1, SVG Export Plug-In . SVG Version: 6.00 Build 0)  -->
<svg version="1.1" id="Camada_1" xmlns="http://www.w3.org/2000/svg" xmlns:xlink="http://www.w3.org/1999/xlink" x="0px" y="0px"
	 viewBox="273.7 375.4 64.5 40" enable-background="new 273.7 375.4 64.5 40" xml:space="preserve">
<g>
	<defs>
		<rect id="SVGID_1_" x="273.7" y="375.4" width="64.5" height="40"/>
	</defs>
	<clipPath id="SVGID_2_">
		<use xlink:href="#SVGID_1_"  overflow="visible"/>
	</clipPath>
	
		<path clip-path="url(#SVGID_2_)" fill="none" stroke="#FFFFFF" stroke-width="1.85" stroke-linecap="round" stroke-linejoin="round" stroke-miterlimit="10" d="
		M330,398.2v-8.3 M314.2,398.2v-8.3 M282.6,398.2v-8.3 M298.4,398.2v-8.3 M321.7,405v-15 M305.9,405v-15 M283,382.8h46.6
		 M276.2,393.3h60.1 M275.5,397.8h60.9 M290.1,405v-15 M337.5,406.5v-9.8c0-4.4-3.2-7.9-7.6-7.9h-47.6c-4.4,0-7.9,3.5-7.9,7.9v9.8
		 M321.7,413.2v-5.9c0-4.4-3.4-7.9-7.8-7.9c-4.4,0-8,3.5-8,7.9 M332.2,414.7V408c0-1.5-1.4-2.7-2.6-2.7c-1.3,0-2.6,1.3-2.6,2.8v6.5
		 M330,388.4v-2.2c0-1.5-1.4-2.7-2.6-2.7c-1.3,0-2.6,1.3-2.6,2.8v2 M319.5,388.4v-2.2c0-1.5-1.4-2.7-2.6-2.7c-1.3,0-2.6,1.3-2.6,2.8
		v2 M324.7,388.4v-2.2c0-1.5-1.4-2.7-2.6-2.7c-1.3,0-2.6,1.3-2.6,2.8v2 M298.4,388.4v-2.2c0-1.5-1.4-2.7-2.6-2.7
		c-1.3,0-2.6,1.3-2.6,2.8v2 M287.9,388.4v-2.2c0-1.5-1.4-2.7-2.6-2.7c-1.3,0-2.6,1.3-2.6,2.8v2 M293.1,388.4v-2.2
		c0-1.5-1.4-2.7-2.6-2.7c-1.3,0-2.6,1.3-2.6,2.8v2 M314.2,388.4v-2.2c0-1.5-1.4-2.7-2.6-2.7c-1.3,0-2.6,1.3-2.6,2.8v2 M303.7,388.4
		v-2.2c0-1.5-1.4-2.7-2.6-2.7c-1.3,0-2.6,1.3-2.6,2.8v2 M308.9,388.4v-2.2c0-1.5-1.4-2.7-2.6-2.7c-1.3,0-2.6,1.3-2.6,2.8v2
		 M316.4,414.7V408c0-1.5-1.4-2.7-2.6-2.7c-1.3,0-2.6,1.3-2.6,2.8v6.5 M284.9,414.7V408c0-1.5-1.4-2.7-2.6-2.7
		c-1.3,0-2.6,1.3-2.6,2.8v6.5 M300.7,414.7V408c0-1.5-1.4-2.7-2.6-2.7c-1.3,0-2.6,1.3-2.6,2.8v6.5 M298.4,388.4V384
		c0-4.4-3.4-7.9-7.8-7.9c-4.4,0-8,3.5-8,7.9v5.1 M330,388.4V384c0-4.4-3.5-7.9-7.8-7.9c-4.4,0-8,3.5-8,7.9 M314.2,388.4V384
		c0-4.4-3.5-7.9-7.8-7.9c-4.4,0-8,3.5-8,7.9 M305.9,413.2v-5.9c0-4.4-3.5-7.9-7.8-7.9c-4.4,0-8,3.5-8,7.9 M290.1,414v-5.9
		c0-4.4-3.5-7.9-7.9-7.9c-4.4,0-7.9,3.6-7.9,7.9v6.3h63.1v-6.3c0-4.4-3.4-7.9-7.8-7.9c-4.4,0-7.9,3.5-7.9,7.9"/>
</g>
</svg>
