<?xml version="1.0" encoding="utf-8"?>
<!-- Generator: Adobe Illustrator 18.1.1, SVG Export Plug-In . SVG Version: 6.00 Build 0)  -->
<svg version="1.1" id="Camada_1" xmlns="http://www.w3.org/2000/svg" xmlns:xlink="http://www.w3.org/1999/xlink" x="0px" y="0px"
	 viewBox="0 0 75 40" enable-background="new 0 0 75 40" xml:space="preserve">
<g>
	<defs>
		<rect id="SVGID_1_" x="0" y="0" width="75" height="40"/>
	</defs>
	<clipPath id="SVGID_2_">
		<use xlink:href="#SVGID_1_"  overflow="visible"/>
	</clipPath>
	
		<path clip-path="url(#SVGID_2_)" fill="none" stroke="#FFFFFF" stroke-width="1.777" stroke-linecap="round" stroke-linejoin="round" stroke-miterlimit="10" d="
		M0.7,39.3c0-20.1,6.9-35.2,15.4-35.2c6.6,0,13.1,13.4,13.1,19.9 M74.3,39.3c0-9.5-12.1-21.3-27-21.3c-8.5,0-16.1,3.8-21.1,8.9
		 M18.9,1.8l16.2,8.4 M36.8,11.2l8,4.2"/>
	
		<path clip-path="url(#SVGID_2_)" fill="none" stroke="#FFFFFF" stroke-width="1.777" stroke-linecap="round" stroke-linejoin="round" stroke-miterlimit="10" d="
		M50.9,17.4c0,0.2-0.2,0.4-0.4,0.4h-5.3c-0.2,0-0.4-0.2-0.4-0.4v-2.5c0-0.2,0.2-0.4,0.4-0.4h5.3c0.2,0,0.4,0.2,0.4,0.4V17.4z
		 M36.7,13.3c0,0.2-0.2,0.4-0.4,0.4H31c-0.2,0-0.4-0.2-0.4-0.4v-2.5c0-0.2,0.2-0.4,0.4-0.4h5.3c0.2,0,0.4,0.2,0.4,0.4V13.3z
		 M18.7,3.6c0,0.2-0.2,0.4-0.4,0.4h-5.3c-0.2,0-0.4-0.2-0.4-0.4V1.1c0-0.2,0.2-0.4,0.4-0.4h5.3c0.2,0,0.4,0.2,0.4,0.4V3.6z"/>
</g>
</svg>
